<svg width="568" height="902" viewBox="0 0 568 902" fill="none" xmlns="http://www.w3.org/2000/svg">
<g clip-path="url(#clip0_879_2)">
<path fill-rule="evenodd" clip-rule="evenodd" d="M431.936 32.4287C442.466 37.0243 446.916 41.3875 446.916 57.7927V159.074C446.916 176.352 429.144 174.548 416.665 176.148C418.934 191.012 416.374 197.702 400.987 201.57V264.602C414.746 266.696 416.142 268.877 416.81 283.741C483.827 283.741 567.918 290.664 567.918 377.023V797.71C567.918 912.662 451.017 901.492 278.356 901.492C105.695 901.492 0.0800781 908.153 0.0800781 797.71V377.023C0.0800781 290.664 84.1709 283.741 151.216 283.741C151.885 268.877 153.252 266.696 167.04 264.602V201.57C151.652 197.701 149.064 191.011 151.362 176.148C138.883 174.548 121.082 176.352 121.082 159.074V57.7927C121.082 41.3875 125.561 37.0243 136.062 32.4287C246.011 17.0127 322.016 17.0127 431.936 32.4287ZM152.06 25.9131C238.943 -8.35126 329.084 -8.35126 415.967 25.9131C336.123 7.15194 231.933 7.15194 152.06 25.9131Z" fill="black"/>
<path fill-rule="evenodd" clip-rule="evenodd" d="M84.8408 765.015C39.3488 754.718 36.178 752.449 17.5332 711.262C24.0488 751.169 31.4368 789.418 39.5232 829.006L33.4732 760.651C134.434 802.159 433.595 802.159 534.528 760.651L528.506 829.006C536.593 789.418 543.981 751.169 550.496 711.262C531.852 752.449 528.681 754.718 483.16 765.015C384.409 787.412 183.563 787.412 84.8412 765.015H84.8408Z" fill="white"/>
<path fill-rule="evenodd" clip-rule="evenodd" d="M149.82 847.594C241.386 853.557 326.641 853.557 418.207 847.594C319.98 869.089 248.047 869.089 149.82 847.594Z" fill="white"/>
<path fill-rule="evenodd" clip-rule="evenodd" d="M440.285 164.951C408.755 154.102 350.581 146.801 284 146.801C217.42 146.801 159.275 154.102 127.744 164.951C161.863 155.294 219.107 148.954 284 148.954C348.894 148.954 406.166 155.294 440.285 164.951Z" fill="white"/>
<path fill-rule="evenodd" clip-rule="evenodd" d="M284.145 222.366C248.543 222.366 212.969 225.042 177.279 225.682C259.334 214.948 308.724 214.92 390.749 225.652C355.147 225.042 319.748 222.366 284.145 222.366Z" fill="white"/>
<path fill-rule="evenodd" clip-rule="evenodd" d="M283.883 209.597C317.973 209.597 351.859 212.826 385.978 215.123C324.721 200.58 243.277 200.609 182.049 215.123C216.052 212.855 249.793 209.597 283.883 209.597Z" fill="white"/>
<path fill-rule="evenodd" clip-rule="evenodd" d="M404.419 283.594C394.675 266.927 173.206 267.189 163.607 283.623C247.844 277.69 320.183 277.66 404.419 283.594Z" fill="white"/>
<path fill-rule="evenodd" clip-rule="evenodd" d="M389.469 265.999C326.088 260.851 241.91 260.851 178.529 265.999C231.584 252.968 336.327 252.939 389.469 265.999Z" fill="white"/>
<path fill-rule="evenodd" clip-rule="evenodd" d="M397.555 181.675C406.456 182.17 406.311 176.44 397.555 175.742C316.868 169.43 251.16 169.43 170.473 175.742C161.717 176.44 161.572 182.17 170.473 181.705C249.735 177.458 318.264 177.458 397.555 181.675Z" fill="white"/>
<path fill-rule="evenodd" clip-rule="evenodd" d="M27.4802 387.235C25.793 337.089 67.4458 321.352 106.481 305.762C63.839 320.247 24.5134 333.278 25.1242 387.351L28.8182 704.866C32.3958 598.756 31.1162 493.257 27.4802 387.235Z" fill="white"/>
<path d="M43.2737 848.148C48.1021 854.78 48.4801 855.275 60.4641 858.271C106.044 869.673 195.021 875.374 283.999 875.374C372.976 875.374 461.982 869.673 507.562 858.271C519.546 855.275 519.895 854.78 524.752 848.148C527.923 843.844 529.958 844.687 526.468 849.428C521.203 856.642 520.796 857.166 508.085 860.365C462.302 871.826 373.15 877.526 283.998 877.526C194.846 877.526 105.694 871.825 59.9401 860.365C47.2001 857.166 46.8217 856.642 41.5281 849.428C38.3577 845.094 39.8125 843.436 43.2737 848.148Z" fill="white"/>
<path fill-rule="evenodd" clip-rule="evenodd" d="M151.625 143.832V45.8962C151.625 38.8862 153.079 35.6286 160.438 34.4066L175.913 31.8178C183.999 30.4798 185.482 32.5742 185.482 40.2822V139.644C185.482 144.152 184.929 146.857 179.839 147.585L156.366 150.493C151.712 151.046 151.654 147.294 151.625 143.833V143.832Z" fill="white"/>
<path fill-rule="evenodd" clip-rule="evenodd" d="M331.76 137.025V36.4123C331.76 29.7803 333.098 26.7843 340.224 27.2791L364.832 28.9951C371.667 29.4607 371.638 35.9467 371.638 41.1827V139.497C371.638 145.984 369.399 147.292 363.319 146.798L339.846 144.907C334.611 144.471 331.76 142.289 331.76 137.024V137.025Z" fill="white"/>
<path fill-rule="evenodd" clip-rule="evenodd" d="M205.523 193.775L172.916 200.32C189.699 199.389 206.134 198.429 222.888 196.974C221.317 193.571 220.764 189.644 221.084 185.02L205.523 185.718V193.775Z" fill="white"/>
<path fill-rule="evenodd" clip-rule="evenodd" d="M206.308 246.073L181.875 251.657C198.775 250.785 215.616 249.941 232.487 248.923V229.609C223.121 229.987 215.587 230.453 206.308 231.849V246.073Z" fill="white"/>
<path fill-rule="evenodd" clip-rule="evenodd" d="M362.477 193.775L395.112 200.32C378.329 199.389 361.866 198.429 345.111 196.974C346.682 193.571 347.264 189.644 346.944 185.02L362.476 185.718V193.775L362.477 193.775Z" fill="white"/>
<path fill-rule="evenodd" clip-rule="evenodd" d="M361.719 246.073L386.123 251.657C369.253 250.785 352.382 249.941 335.512 248.923V229.609C344.907 229.987 352.411 230.453 361.719 231.849V246.073Z" fill="white"/>
<path fill-rule="evenodd" clip-rule="evenodd" d="M547.325 387.231C548.285 359.308 550.234 340.866 549.71 387.348L546.016 704.862C542.438 598.753 543.718 493.254 547.325 387.231Z" fill="white"/>
<path fill-rule="evenodd" clip-rule="evenodd" d="M420.388 299.711C463.407 299.711 526.759 308.699 546.684 352.271C502.006 326.5 471.174 315.069 419.893 315.069C380.567 315.069 337.751 313.353 298.862 315.505C136.41 324.581 73.524 346.018 71.7204 518.824C69.0152 588.604 66.63 647.68 52.7848 716.878C49.876 694.51 50.0508 676.563 50.0508 654.05V396.717C50.0508 321.294 175.358 296.599 300.694 298.926C340.427 299.653 380.218 299.711 420.388 299.711Z" fill="white"/>
<path d="M143.816 553V551.72L146.504 550.824C148.211 550.227 149.32 549.459 149.832 548.52C150.344 547.496 150.6 546.088 150.6 544.296V477.352C150.6 475.645 150.344 474.323 149.832 473.384C149.405 472.36 148.381 471.549 146.76 470.952L143.816 469.8V468.52H180.424C190.493 468.52 198.216 470.44 203.592 474.28C208.968 478.035 211.656 483.283 211.656 490.024C211.656 493.779 210.248 497.533 207.432 501.288C204.616 505.043 200.179 507.944 194.12 509.992L211.912 545.32C212.68 546.771 213.533 547.965 214.472 548.904C215.496 549.757 216.819 550.525 218.44 551.208L220.104 551.848V553H197.192L178.248 512.68H169.544V544.296C169.544 545.917 169.8 547.24 170.312 548.264C170.824 549.288 171.891 550.056 173.512 550.568L176.584 551.72V553H143.816ZM169.544 510.12H175.688C181.832 510.12 186.269 508.499 189 505.256C191.731 501.928 193.096 497.021 193.096 490.536C193.096 483.965 191.816 479.101 189.256 475.944C186.696 472.701 182.387 471.08 176.328 471.08H169.544V510.12ZM244.671 553V551.72L247.231 550.696C248.938 550.099 250.047 549.288 250.559 548.264C251.156 547.24 251.455 545.875 251.455 544.168V477.352C251.455 475.645 251.199 474.28 250.687 473.256C250.175 472.232 249.023 471.421 247.231 470.824L244.671 469.8V468.52H277.567V469.8L275.007 470.824C273.3 471.421 272.148 472.232 271.551 473.256C271.039 474.28 270.783 475.645 270.783 477.352V544.168C270.783 545.875 271.039 547.24 271.551 548.264C272.148 549.203 273.3 550.013 275.007 550.696L277.567 551.72V553H244.671ZM331.171 555.304C326.478 555.304 321.699 554.707 316.835 553.512C311.971 552.403 307.918 550.909 304.675 549.032L305.315 531.624H306.595L310.563 539.944C311.758 542.333 313.038 544.467 314.403 546.344C315.768 548.136 317.646 549.544 320.035 550.568C321.742 551.421 323.363 552.019 324.899 552.36C326.52 552.616 328.312 552.744 330.275 552.744C335.48 552.744 339.576 551.336 342.563 548.52C345.635 545.704 347.171 542.077 347.171 537.64C347.171 533.459 346.147 530.216 344.099 527.912C342.051 525.523 338.766 523.219 334.243 521L328.995 518.696C321.656 515.453 315.896 511.741 311.715 507.56C307.619 503.293 305.571 497.661 305.571 490.664C305.571 485.629 306.851 481.277 309.411 477.608C312.056 473.939 315.683 471.123 320.291 469.16C324.984 467.197 330.446 466.216 336.675 466.216C341.198 466.216 345.464 466.813 349.475 468.008C353.571 469.203 357.112 470.824 360.099 472.872L359.331 488.232H358.051L352.803 478.632C351.352 475.645 349.902 473.555 348.451 472.36C347 471.08 345.336 470.184 343.459 469.672C342.35 469.331 341.326 469.117 340.387 469.032C339.448 468.861 338.254 468.776 336.803 468.776C332.451 468.776 328.782 470.056 325.795 472.616C322.808 475.091 321.315 478.461 321.315 482.728C321.315 487.08 322.467 490.579 324.771 493.224C327.075 495.784 330.446 498.088 334.883 500.136L340.771 502.696C348.963 506.28 354.851 510.12 358.435 514.216C362.019 518.227 363.811 523.432 363.811 529.832C363.811 537.341 360.952 543.485 355.235 548.264C349.603 552.957 341.582 555.304 331.171 555.304ZM390.381 553V551.72L393.325 550.568C394.776 549.971 395.757 549.203 396.269 548.264C396.866 547.24 397.165 545.875 397.165 544.168V477.352C397.165 475.645 396.909 474.323 396.397 473.384C395.97 472.36 394.946 471.549 393.325 470.952L390.381 469.8V468.52H451.693L452.461 488.232H451.181L445.677 476.2C444.909 474.664 444.098 473.427 443.245 472.488C442.392 471.549 441.112 471.08 439.405 471.08H416.365V508.072H430.061C431.768 508.072 433.048 507.645 433.901 506.792C434.84 505.853 435.65 504.616 436.333 503.08L438.893 497.96H440.173V521H438.893L436.333 515.624C435.565 514.088 434.754 512.893 433.901 512.04C433.048 511.101 431.768 510.632 430.061 510.632H416.365V550.44H442.221C443.928 550.44 445.25 550.013 446.189 549.16C447.128 548.221 447.896 546.941 448.493 545.32L453.741 533.288H455.021L454.253 553H390.381Z" fill="white"/>
<path d="M136.391 591V575H142.703C143.911 575 144.943 575.216 145.797 575.648C146.656 576.076 147.31 576.682 147.758 577.469C148.211 578.25 148.438 579.169 148.438 580.227C148.438 581.289 148.208 582.203 147.75 582.969C147.292 583.729 146.628 584.312 145.758 584.719C144.893 585.125 143.846 585.328 142.617 585.328H138.391V582.609H142.07C142.716 582.609 143.253 582.521 143.68 582.344C144.107 582.167 144.424 581.901 144.633 581.547C144.846 581.193 144.953 580.753 144.953 580.227C144.953 579.695 144.846 579.247 144.633 578.883C144.424 578.518 144.104 578.242 143.672 578.055C143.245 577.862 142.706 577.766 142.055 577.766H139.773V591H136.391ZM145.031 583.719L149.008 591H145.273L141.383 583.719H145.031ZM157.071 575V591H153.688V575H157.071ZM171.394 579.602C171.331 578.971 171.063 578.482 170.589 578.133C170.115 577.784 169.472 577.609 168.659 577.609C168.107 577.609 167.641 577.687 167.261 577.844C166.881 577.995 166.589 578.206 166.386 578.477C166.188 578.747 166.089 579.055 166.089 579.398C166.079 579.685 166.139 579.935 166.269 580.148C166.404 580.362 166.589 580.547 166.824 580.703C167.058 580.854 167.329 580.987 167.636 581.102C167.943 581.211 168.271 581.305 168.62 581.383L170.058 581.727C170.756 581.883 171.396 582.091 171.98 582.352C172.563 582.612 173.068 582.932 173.495 583.312C173.922 583.693 174.253 584.141 174.488 584.656C174.727 585.172 174.85 585.763 174.855 586.43C174.85 587.409 174.6 588.258 174.105 588.977C173.615 589.69 172.907 590.245 171.98 590.641C171.058 591.031 169.946 591.227 168.644 591.227C167.352 591.227 166.227 591.029 165.269 590.633C164.316 590.237 163.571 589.651 163.034 588.875C162.503 588.094 162.225 587.128 162.199 585.977H165.472C165.508 586.513 165.662 586.961 165.933 587.32C166.209 587.674 166.576 587.943 167.034 588.125C167.498 588.302 168.021 588.391 168.605 588.391C169.178 588.391 169.675 588.307 170.097 588.141C170.524 587.974 170.855 587.742 171.089 587.445C171.324 587.148 171.441 586.807 171.441 586.422C171.441 586.062 171.334 585.76 171.12 585.516C170.912 585.271 170.605 585.062 170.199 584.891C169.797 584.719 169.305 584.562 168.722 584.422L166.98 583.984C165.631 583.656 164.566 583.143 163.784 582.445C163.003 581.747 162.615 580.807 162.62 579.625C162.615 578.656 162.873 577.81 163.394 577.086C163.92 576.362 164.641 575.797 165.558 575.391C166.475 574.984 167.516 574.781 168.683 574.781C169.87 574.781 170.907 574.984 171.792 575.391C172.683 575.797 173.376 576.362 173.87 577.086C174.365 577.81 174.62 578.648 174.636 579.602H171.394ZM179.99 591V575H190.771V577.789H183.373V581.602H190.217V584.391H183.373V588.211H190.803V591H179.99ZM207.874 591L203.296 575H206.991L209.64 586.117H209.773L212.695 575H215.859L218.773 586.141H218.913L221.562 575H225.257L220.679 591H217.382L214.335 580.539H214.21L211.171 591H207.874ZM233.31 575V591H229.928V575H233.31ZM238.344 577.789V575H251.485V577.789H246.586V591H243.243V577.789H238.344ZM256.509 591V575H259.892V581.602H266.759V575H270.134V591H266.759V584.391H259.892V591H256.509ZM297.852 580.602H294.43C294.368 580.159 294.24 579.766 294.047 579.422C293.855 579.073 293.607 578.776 293.305 578.531C293.003 578.286 292.654 578.099 292.258 577.969C291.868 577.839 291.443 577.773 290.985 577.773C290.157 577.773 289.435 577.979 288.821 578.391C288.206 578.797 287.73 579.391 287.391 580.172C287.052 580.948 286.883 581.891 286.883 583C286.883 584.141 287.052 585.099 287.391 585.875C287.735 586.651 288.214 587.237 288.829 587.633C289.443 588.029 290.154 588.227 290.961 588.227C291.414 588.227 291.834 588.167 292.219 588.047C292.61 587.927 292.956 587.753 293.258 587.523C293.56 587.289 293.81 587.005 294.008 586.672C294.211 586.339 294.352 585.958 294.43 585.531L297.852 585.547C297.763 586.281 297.542 586.99 297.188 587.672C296.839 588.349 296.368 588.956 295.774 589.492C295.185 590.023 294.482 590.445 293.664 590.758C292.852 591.065 291.933 591.219 290.907 591.219C289.48 591.219 288.204 590.896 287.079 590.25C285.959 589.604 285.073 588.669 284.422 587.445C283.776 586.221 283.454 584.74 283.454 583C283.454 581.255 283.782 579.771 284.438 578.547C285.094 577.323 285.985 576.391 287.11 575.75C288.235 575.104 289.5 574.781 290.907 574.781C291.834 574.781 292.693 574.911 293.485 575.172C294.282 575.432 294.987 575.812 295.602 576.312C296.217 576.807 296.717 577.414 297.102 578.133C297.493 578.852 297.743 579.674 297.852 580.602ZM317.841 583C317.841 584.745 317.51 586.229 316.849 587.453C316.192 588.677 315.297 589.612 314.161 590.258C313.031 590.898 311.76 591.219 310.349 591.219C308.927 591.219 307.651 590.896 306.521 590.25C305.39 589.604 304.497 588.669 303.841 587.445C303.185 586.221 302.856 584.74 302.856 583C302.856 581.255 303.185 579.771 303.841 578.547C304.497 577.323 305.39 576.391 306.521 575.75C307.651 575.104 308.927 574.781 310.349 574.781C311.76 574.781 313.031 575.104 314.161 575.75C315.297 576.391 316.192 577.323 316.849 578.547C317.51 579.771 317.841 581.255 317.841 583ZM314.411 583C314.411 581.87 314.242 580.917 313.903 580.141C313.57 579.365 313.099 578.776 312.489 578.375C311.88 577.974 311.166 577.773 310.349 577.773C309.531 577.773 308.817 577.974 308.208 578.375C307.599 578.776 307.125 579.365 306.786 580.141C306.453 580.917 306.286 581.87 306.286 583C306.286 584.13 306.453 585.083 306.786 585.859C307.125 586.635 307.599 587.224 308.208 587.625C308.817 588.026 309.531 588.227 310.349 588.227C311.166 588.227 311.88 588.026 312.489 587.625C313.099 587.224 313.57 586.635 313.903 585.859C314.242 585.083 314.411 584.13 314.411 583ZM336.59 575V591H333.668L326.707 580.93H326.59V591H323.207V575H326.175L333.082 585.062H333.222V575H336.59ZM342.244 591V575H352.838V577.789H345.627V581.602H352.135V584.391H345.627V591H342.244ZM357.974 591V575H368.755V577.789H361.356V581.602H368.2V584.391H361.356V588.211H368.786V591H357.974ZM379.976 591H374.304V575H380.023C381.632 575 383.018 575.32 384.179 575.961C385.341 576.596 386.234 577.51 386.859 578.703C387.489 579.896 387.804 581.323 387.804 582.984C387.804 584.651 387.489 586.083 386.859 587.281C386.234 588.479 385.336 589.398 384.164 590.039C382.997 590.68 381.601 591 379.976 591ZM377.687 588.102H379.836C380.836 588.102 381.677 587.924 382.359 587.57C383.046 587.211 383.562 586.656 383.906 585.906C384.255 585.151 384.429 584.177 384.429 582.984C384.429 581.802 384.255 580.836 383.906 580.086C383.562 579.336 383.049 578.784 382.367 578.43C381.684 578.076 380.843 577.898 379.843 577.898H377.687V588.102ZM393.17 591V575H403.951V577.789H396.553V581.602H403.397V584.391H396.553V588.211H403.983V591H393.17ZM422.884 575V591H419.962L413.001 580.93H412.884V591H409.501V575H412.47L419.376 585.062H419.516V575H422.884ZM442.656 580.602H439.234C439.171 580.159 439.044 579.766 438.851 579.422C438.658 579.073 438.411 578.776 438.109 578.531C437.807 578.286 437.458 578.099 437.062 577.969C436.671 577.839 436.247 577.773 435.789 577.773C434.96 577.773 434.239 577.979 433.625 578.391C433.01 578.797 432.533 579.391 432.195 580.172C431.856 580.948 431.687 581.891 431.687 583C431.687 584.141 431.856 585.099 432.195 585.875C432.539 586.651 433.018 587.237 433.632 587.633C434.247 588.029 434.958 588.227 435.765 588.227C436.218 588.227 436.638 588.167 437.023 588.047C437.414 587.927 437.76 587.753 438.062 587.523C438.364 587.289 438.614 587.005 438.812 586.672C439.015 586.339 439.156 585.958 439.234 585.531L442.656 585.547C442.567 586.281 442.346 586.99 441.992 587.672C441.643 588.349 441.171 588.956 440.578 589.492C439.989 590.023 439.286 590.445 438.468 590.758C437.656 591.065 436.737 591.219 435.71 591.219C434.283 591.219 433.007 590.896 431.882 590.25C430.763 589.604 429.877 588.669 429.226 587.445C428.58 586.221 428.257 584.74 428.257 583C428.257 581.255 428.585 579.771 429.242 578.547C429.898 577.323 430.789 576.391 431.914 575.75C433.039 575.104 434.304 574.781 435.71 574.781C436.638 574.781 437.497 574.911 438.289 575.172C439.085 575.432 439.791 575.812 440.406 576.312C441.02 576.807 441.52 577.414 441.906 578.133C442.296 578.852 442.546 579.674 442.656 580.602ZM447.942 591V575H458.723V577.789H451.324V581.602H458.168V584.391H451.324V588.211H458.754V591H447.942Z" fill="white"/>
</g>
<defs>
<clipPath id="clip0_879_2">
<rect width="568" height="902" fill="white"/>
</clipPath>
</defs>
</svg>
